<mxfile host="app.diagrams.net" modified="2023-11-15T10:01:07.550Z" agent="Mozilla/5.0 (Macintosh; Intel Mac OS X 10_15_7) AppleWebKit/537.36 (KHTML, like Gecko) Chrome/117.0.0.0 Safari/537.36" etag="-Yu3dtfI236rjemp5uqL" version="22.1.0" type="device">
  <diagram name="Page-1" id="1NIXJ2y8jidi596uCj2Z">
    <mxGraphModel dx="2022" dy="664" grid="1" gridSize="10" guides="1" tooltips="1" connect="1" arrows="1" fold="1" page="1" pageScale="1" pageWidth="827" pageHeight="1169" math="0" shadow="0">
      <root>
        <mxCell id="0" />
        <mxCell id="1" parent="0" />
        <mxCell id="qiuY7Xriz6ntmd6cjwqG-1" value="" style="endArrow=none;html=1;rounded=1;strokeWidth=2;strokeColor=#24B064;exitX=1;exitY=0.75;exitDx=0;exitDy=0;entryX=1;entryY=0.5;entryDx=0;entryDy=0;" edge="1" parent="1">
          <mxGeometry width="50" height="50" relative="1" as="geometry">
            <mxPoint x="-680" y="222" as="sourcePoint" />
            <mxPoint x="-362.9999999999743" y="221" as="targetPoint" />
          </mxGeometry>
        </mxCell>
        <mxCell id="qiuY7Xriz6ntmd6cjwqG-2" value="" style="ellipse;whiteSpace=wrap;html=1;aspect=fixed;rounded=1;rotation=0;strokeWidth=2;" vertex="1" parent="1">
          <mxGeometry x="-540" y="211" width="20" height="20" as="geometry" />
        </mxCell>
        <mxCell id="qiuY7Xriz6ntmd6cjwqG-3" value="" style="ellipse;whiteSpace=wrap;html=1;aspect=fixed;rounded=1;rotation=0;strokeWidth=2;" vertex="1" parent="1">
          <mxGeometry x="-383" y="211" width="20" height="20" as="geometry" />
        </mxCell>
        <mxCell id="qiuY7Xriz6ntmd6cjwqG-4" value="hifiasm" style="text;html=1;strokeColor=none;fillColor=none;align=center;verticalAlign=middle;whiteSpace=wrap;rounded=0;" vertex="1" parent="1">
          <mxGeometry x="-560" y="181" width="60" height="30" as="geometry" />
        </mxCell>
        <mxCell id="qiuY7Xriz6ntmd6cjwqG-10" value="" style="endArrow=none;html=1;rounded=1;strokeWidth=2;strokeColor=#24B064;" edge="1" parent="1">
          <mxGeometry width="50" height="50" relative="1" as="geometry">
            <mxPoint x="-480" y="327" as="sourcePoint" />
            <mxPoint x="-639" y="220" as="targetPoint" />
            <Array as="points">
              <mxPoint x="-619.5" y="327" />
              <mxPoint x="-639.5" y="307" />
            </Array>
          </mxGeometry>
        </mxCell>
        <mxCell id="qiuY7Xriz6ntmd6cjwqG-14" value="" style="group;fillColor=none;imageWidth=24;aspect=fixed;" vertex="1" connectable="0" parent="1">
          <mxGeometry x="-750" y="172" width="70" height="77.78" as="geometry" />
        </mxCell>
        <mxCell id="qiuY7Xriz6ntmd6cjwqG-15" value="" style="shape=note;whiteSpace=wrap;html=1;backgroundOutline=1;darkOpacity=0.05;rounded=1;size=20;strokeWidth=2;" vertex="1" parent="qiuY7Xriz6ntmd6cjwqG-14">
          <mxGeometry x="3.888888888888889" width="62.22222222222222" height="77.78" as="geometry" />
        </mxCell>
        <mxCell id="qiuY7Xriz6ntmd6cjwqG-16" value="&lt;font data-font-src=&quot;https://fonts.googleapis.com/css?family=Maven+Pro&quot; face=&quot;Maven Pro&quot; color=&quot;#ffffff&quot;&gt;&lt;b&gt;&lt;font style=&quot;font-size: 20px;&quot;&gt;Fasta&lt;/font&gt;&lt;/b&gt;&lt;/font&gt;" style="rounded=1;whiteSpace=wrap;html=1;strokeWidth=2;fillColor=#000000;" vertex="1" parent="qiuY7Xriz6ntmd6cjwqG-14">
          <mxGeometry y="31.112000000000002" width="70" height="31.112000000000002" as="geometry" />
        </mxCell>
        <mxCell id="qiuY7Xriz6ntmd6cjwqG-17" value="" style="group;aspect=fixed;" vertex="1" connectable="0" parent="1">
          <mxGeometry x="-750" y="280" width="70" height="77.78" as="geometry" />
        </mxCell>
        <mxCell id="qiuY7Xriz6ntmd6cjwqG-18" value="" style="shape=note;whiteSpace=wrap;html=1;backgroundOutline=1;darkOpacity=0.05;rounded=1;size=20;strokeWidth=2;" vertex="1" parent="qiuY7Xriz6ntmd6cjwqG-17">
          <mxGeometry x="3.888888888888889" width="62.22222222222222" height="77.78" as="geometry" />
        </mxCell>
        <mxCell id="qiuY7Xriz6ntmd6cjwqG-19" value="&lt;font data-font-src=&quot;https://fonts.googleapis.com/css?family=Maven+Pro&quot; face=&quot;Maven Pro&quot; color=&quot;#ffffff&quot;&gt;&lt;b&gt;&lt;font style=&quot;font-size: 20px;&quot;&gt;CRAM&lt;/font&gt;&lt;/b&gt;&lt;/font&gt;" style="rounded=1;whiteSpace=wrap;html=1;strokeWidth=2;fillColor=#000000;" vertex="1" parent="qiuY7Xriz6ntmd6cjwqG-17">
          <mxGeometry y="31.112000000000002" width="70" height="31.112000000000002" as="geometry" />
        </mxCell>
        <mxCell id="qiuY7Xriz6ntmd6cjwqG-20" value="hifiasm_hic_on: Boolean" style="rounded=1;whiteSpace=wrap;html=1;aspect=fixed;" vertex="1" parent="1">
          <mxGeometry x="-750" y="400" width="93" height="60" as="geometry" />
        </mxCell>
        <mxCell id="qiuY7Xriz6ntmd6cjwqG-22" value="GFA to FASTA" style="text;html=1;strokeColor=none;fillColor=none;align=center;verticalAlign=middle;whiteSpace=wrap;rounded=0;" vertex="1" parent="1">
          <mxGeometry x="-403" y="172" width="60" height="30" as="geometry" />
        </mxCell>
        <mxCell id="qiuY7Xriz6ntmd6cjwqG-23" value="" style="endArrow=none;html=1;rounded=1;strokeWidth=2;strokeColor=#7EB2DD;" edge="1" parent="1">
          <mxGeometry width="50" height="50" relative="1" as="geometry">
            <mxPoint x="-680" y="330" as="sourcePoint" />
            <mxPoint x="-380" y="330" as="targetPoint" />
          </mxGeometry>
        </mxCell>
        <mxCell id="qiuY7Xriz6ntmd6cjwqG-33" value="" style="endArrow=none;html=1;rounded=1;strokeWidth=2;strokeColor=#FF9914;" edge="1" parent="1">
          <mxGeometry width="50" height="50" relative="1" as="geometry">
            <mxPoint x="-380" y="333" as="sourcePoint" />
            <mxPoint x="-613" y="333" as="targetPoint" />
          </mxGeometry>
        </mxCell>
        <mxCell id="qiuY7Xriz6ntmd6cjwqG-34" value="" style="endArrow=none;html=1;rounded=1;strokeWidth=2;strokeColor=#FF9914;" edge="1" parent="1">
          <mxGeometry width="50" height="50" relative="1" as="geometry">
            <mxPoint x="-600" y="333" as="sourcePoint" />
            <mxPoint x="-640" y="373" as="targetPoint" />
            <Array as="points">
              <mxPoint x="-620" y="333" />
              <mxPoint x="-640" y="353" />
            </Array>
          </mxGeometry>
        </mxCell>
        <mxCell id="qiuY7Xriz6ntmd6cjwqG-38" value="hifiasm in HiC mode" style="text;html=1;strokeColor=none;fillColor=none;align=center;verticalAlign=middle;whiteSpace=wrap;rounded=0;" vertex="1" parent="1">
          <mxGeometry x="-550" y="280" width="60" height="30" as="geometry" />
        </mxCell>
        <mxCell id="qiuY7Xriz6ntmd6cjwqG-37" value="" style="ellipse;whiteSpace=wrap;html=1;aspect=fixed;rounded=1;rotation=0;strokeWidth=2;" vertex="1" parent="1">
          <mxGeometry x="-530" y="320" width="20" height="20" as="geometry" />
        </mxCell>
        <mxCell id="qiuY7Xriz6ntmd6cjwqG-42" value="" style="endArrow=none;html=1;rounded=1;strokeWidth=2;strokeColor=#24B064;" edge="1" parent="1">
          <mxGeometry width="50" height="50" relative="1" as="geometry">
            <mxPoint x="-480" y="327" as="sourcePoint" />
            <mxPoint x="-380" y="327" as="targetPoint" />
          </mxGeometry>
        </mxCell>
        <mxCell id="qiuY7Xriz6ntmd6cjwqG-45" value="" style="ellipse;whiteSpace=wrap;html=1;aspect=fixed;rounded=1;rotation=0;strokeWidth=2;" vertex="1" parent="1">
          <mxGeometry x="-383" y="320" width="20" height="20" as="geometry" />
        </mxCell>
        <mxCell id="qiuY7Xriz6ntmd6cjwqG-46" value="GFA to FASTA" style="text;html=1;strokeColor=none;fillColor=none;align=center;verticalAlign=middle;whiteSpace=wrap;rounded=0;" vertex="1" parent="1">
          <mxGeometry x="-403" y="280" width="60" height="30" as="geometry" />
        </mxCell>
        <mxCell id="qiuY7Xriz6ntmd6cjwqG-71" value="" style="endArrow=none;html=1;rounded=1;strokeWidth=2;strokeColor=#FF9914;" edge="1" parent="1">
          <mxGeometry width="50" height="50" relative="1" as="geometry">
            <mxPoint x="-657" y="440" as="sourcePoint" />
            <mxPoint x="-640" y="370" as="targetPoint" />
            <Array as="points">
              <mxPoint x="-637" y="440" />
            </Array>
          </mxGeometry>
        </mxCell>
      </root>
    </mxGraphModel>
  </diagram>
</mxfile>
